<svg xmlns="http://www.w3.org/2000/svg" xmlns:xlink="http://www.w3.org/1999/xlink" width="500" zoomAndPan="magnify" viewBox="0 0 375 374.999991" height="500" preserveAspectRatio="xMidYMid meet" version="1.0"><defs><clipPath id="e0a07b3bbc"><path d="M 13.566406 13.566406 L 361.566406 13.566406 L 361.566406 361.566406 L 13.566406 361.566406 Z M 13.566406 13.566406 " clip-rule="nonzero"/></clipPath></defs><g clip-path="url(#e0a07b3bbc)"><path fill="#545454" d="M 116.386719 13.566406 C 59.699219 13.566406 13.566406 59.699219 13.566406 116.386719 L 13.566406 258.75 C 13.566406 315.4375 59.699219 361.566406 116.386719 361.566406 L 258.75 361.566406 C 315.4375 361.566406 361.566406 315.4375 361.566406 258.75 L 361.566406 116.386719 C 361.566406 59.699219 315.4375 13.566406 258.75 13.566406 Z M 116.386719 29.386719 L 258.75 29.386719 C 306.886719 29.386719 345.75 68.246094 345.75 116.386719 L 345.75 258.75 C 345.75 306.886719 306.886719 345.75 258.75 345.75 L 116.386719 345.75 C 68.246094 345.75 29.386719 306.886719 29.386719 258.75 L 29.386719 116.386719 C 29.386719 68.246094 68.246094 29.386719 116.386719 29.386719 Z M 282.476562 76.839844 C 281.4375 76.839844 280.410156 76.941406 279.390625 77.144531 C 278.371094 77.347656 277.382812 77.648438 276.421875 78.042969 C 275.464844 78.441406 274.550781 78.929688 273.6875 79.507812 C 272.824219 80.082031 272.027344 80.738281 271.292969 81.472656 C 270.558594 82.207031 269.902344 83.007812 269.324219 83.871094 C 268.746094 84.734375 268.261719 85.644531 267.863281 86.605469 C 267.464844 87.566406 267.164062 88.554688 266.960938 89.574219 C 266.761719 90.589844 266.660156 91.621094 266.660156 92.660156 C 266.660156 93.699219 266.761719 94.726562 266.960938 95.746094 C 267.164062 96.761719 267.464844 97.753906 267.863281 98.710938 C 268.261719 99.671875 268.746094 100.582031 269.324219 101.445312 C 269.902344 102.308594 270.558594 103.109375 271.292969 103.84375 C 272.027344 104.578125 272.824219 105.234375 273.6875 105.8125 C 274.550781 106.386719 275.464844 106.875 276.421875 107.273438 C 277.382812 107.671875 278.371094 107.96875 279.390625 108.171875 C 280.410156 108.375 281.4375 108.476562 282.476562 108.476562 C 283.515625 108.476562 284.542969 108.375 285.5625 108.171875 C 286.582031 107.96875 287.570312 107.671875 288.53125 107.273438 C 289.488281 106.875 290.402344 106.386719 291.265625 105.8125 C 292.128906 105.234375 292.925781 104.578125 293.660156 103.84375 C 294.394531 103.109375 295.050781 102.308594 295.628906 101.445312 C 296.207031 100.582031 296.695312 99.671875 297.089844 98.710938 C 297.488281 97.753906 297.789062 96.761719 297.992188 95.746094 C 298.195312 94.726562 298.296875 93.699219 298.296875 92.660156 C 298.296875 91.621094 298.195312 90.589844 297.992188 89.574219 C 297.789062 88.554688 297.488281 87.566406 297.089844 86.605469 C 296.695312 85.644531 296.207031 84.734375 295.628906 83.871094 C 295.050781 83.007812 294.394531 82.207031 293.660156 81.472656 C 292.925781 80.738281 292.128906 80.082031 291.265625 79.507812 C 290.402344 78.929688 289.488281 78.441406 288.53125 78.042969 C 287.570312 77.648438 286.582031 77.347656 285.5625 77.144531 C 284.542969 76.941406 283.515625 76.839844 282.476562 76.839844 Z M 187.566406 100.566406 C 139.613281 100.566406 100.566406 139.613281 100.566406 187.566406 C 100.566406 235.523438 139.613281 274.566406 187.566406 274.566406 C 235.523438 274.566406 274.566406 235.523438 274.566406 187.566406 C 274.566406 139.613281 235.523438 100.566406 187.566406 100.566406 Z M 187.566406 116.386719 C 226.972656 116.386719 258.75 148.160156 258.75 187.566406 C 258.75 226.972656 226.972656 258.75 187.566406 258.75 C 148.160156 258.75 116.386719 226.972656 116.386719 187.566406 C 116.386719 148.160156 148.160156 116.386719 187.566406 116.386719 Z M 187.566406 116.386719 " fill-opacity="1" fill-rule="nonzero"/></g></svg>