<svg xmlns="http://www.w3.org/2000/svg" xmlns:xlink="http://www.w3.org/1999/xlink" width="500" zoomAndPan="magnify" viewBox="0 0 375 374.999991" height="500" preserveAspectRatio="xMidYMid meet" version="1.0"><defs><clipPath id="4ef076e6ca"><path d="M 10 13 L 365 13 L 365 369 L 10 369 Z M 10 13 " clip-rule="nonzero"/></clipPath><clipPath id="0a5fb883f0"><path d="M 0 24.46875 L 354.136719 3.585938 L 375.015625 357.71875 L 20.882812 378.601562 Z M 0 24.46875 " clip-rule="nonzero"/></clipPath><clipPath id="ea996d0865"><path d="M 0 24.46875 L 354.136719 3.585938 L 375.015625 357.71875 L 20.882812 378.601562 Z M 0 24.46875 " clip-rule="nonzero"/></clipPath><clipPath id="7ac7448e8a"><path d="M 74 123 L 303 123 L 303 264 L 74 264 Z M 74 123 " clip-rule="nonzero"/></clipPath><clipPath id="1fea58d146"><path d="M 0 24.46875 L 354.136719 3.585938 L 375.015625 357.71875 L 20.882812 378.601562 Z M 0 24.46875 " clip-rule="nonzero"/></clipPath><clipPath id="735eed8d12"><path d="M 0 24.46875 L 354.136719 3.585938 L 375.015625 357.71875 L 20.882812 378.601562 Z M 0 24.46875 " clip-rule="nonzero"/></clipPath></defs><g clip-path="url(#4ef076e6ca)"><g clip-path="url(#0a5fb883f0)"><g clip-path="url(#ea996d0865)"><path fill="#545454" d="M 364.574219 180.652344 C 370.34375 278.464844 295.761719 362.394531 197.949219 368.160156 C 100.136719 373.929688 16.207031 299.347656 10.441406 201.535156 C 4.671875 103.722656 79.253906 19.792969 177.066406 14.027344 C 274.878906 8.257812 358.808594 82.839844 364.574219 180.652344 Z M 364.574219 180.652344 " fill-opacity="1" fill-rule="nonzero"/></g></g></g><g clip-path="url(#7ac7448e8a)"><g clip-path="url(#1fea58d146)"><g clip-path="url(#735eed8d12)"><path fill="#ffffff" d="M 259.957031 257.824219 C 258.175781 261.339844 254.675781 263.464844 250.992188 263.683594 C 249.152344 263.792969 247.28125 263.402344 245.523438 262.511719 C 216.363281 247.742188 183.625 246.972656 161.355469 248.996094 C 136.613281 251.238281 118.769531 257.195312 118.558594 257.207031 C 112.910156 259.101562 106.835938 256.121094 104.941406 250.476562 C 103.042969 244.832031 106.027344 238.753906 111.671875 236.859375 C 112.507812 236.597656 131.742188 230.132812 158.816406 227.609375 C 174.789062 226.101562 190.226562 226.328125 204.835938 228.238281 C 223.246094 230.636719 240.242188 235.675781 255.269531 243.386719 C 260.472656 246.066406 262.632812 252.546875 259.957031 257.824219 Z M 293.53125 147.386719 C 271.621094 136.238281 247.023438 128.878906 220.238281 125.410156 C 199.109375 122.675781 176.632812 122.367188 153.449219 124.515625 C 114.070312 128.117188 86.125 137.511719 84.941406 137.9375 C 76.792969 140.761719 72.410156 149.621094 75.167969 157.773438 C 77.996094 165.996094 86.851562 170.304688 95.003906 167.550781 C 96.046875 167.132812 197.332031 133.511719 279.464844 175.222656 C 282.027344 176.492188 284.761719 177.042969 287.453125 176.882812 C 292.835938 176.566406 297.84375 173.5 300.382812 168.375 C 304.265625 160.683594 301.222656 151.269531 293.53125 147.386719 Z M 271.855469 198.058594 C 253.980469 189.023438 233.941406 183.023438 212.097656 180.191406 C 194.839844 178.011719 176.558594 177.738281 157.613281 179.496094 C 125.523438 182.523438 102.730469 190.121094 101.757812 190.464844 C 95.136719 192.703125 91.585938 199.949219 93.824219 206.566406 C 96.066406 213.257812 103.3125 216.8125 109.929688 214.574219 C 110.140625 214.488281 131.332031 207.484375 160.601562 204.832031 C 187.039062 202.421875 225.828125 203.332031 260.335938 220.84375 C 262.390625 221.929688 264.617188 222.367188 266.816406 222.238281 C 271.207031 221.980469 275.320312 219.460938 277.421875 215.289062 C 280.601562 208.988281 278.089844 201.316406 271.855469 198.058594 Z M 271.855469 198.058594 " fill-opacity="1" fill-rule="nonzero"/></g></g></g></svg>