<svg xmlns="http://www.w3.org/2000/svg" xmlns:xlink="http://www.w3.org/1999/xlink" width="500" zoomAndPan="magnify" viewBox="0 0 375 374.999991" height="500" preserveAspectRatio="xMidYMid meet" version="1.0"><defs><clipPath id="b45b60dcf0"><path d="M 10.742188 12.242188 L 363.992188 12.242188 L 363.992188 365.492188 L 10.742188 365.492188 Z M 10.742188 12.242188 " clip-rule="nonzero"/></clipPath></defs><g clip-path="url(#b45b60dcf0)"><path fill="#545454" d="M 275.398438 12.242188 L 99.054688 12.242188 C 50.550781 12.242188 10.742188 52.050781 10.742188 100.835938 L 10.742188 277.179688 C 10.742188 325.679688 50.550781 365.492188 99.054688 365.492188 L 275.398438 365.492188 C 324.179688 365.492188 363.992188 325.679688 363.992188 276.898438 L 363.992188 100.835938 C 363.992188 52.050781 324.179688 12.242188 275.398438 12.242188 Z M 234.746094 188.867188 L 201.382812 188.867188 L 201.382812 298.207031 L 159.332031 298.207031 L 159.332031 188.867188 L 136.902344 188.867188 L 136.902344 144.007812 L 156.527344 144.007812 L 156.527344 124.945312 C 156.527344 107 165.5 78.6875 203.347656 78.6875 L 237.832031 78.6875 L 237.832031 115.972656 L 213.4375 115.972656 C 209.515625 115.972656 204.1875 118.496094 204.1875 127.1875 L 204.1875 144.007812 L 238.671875 144.007812 Z M 234.746094 188.867188 " fill-opacity="1" fill-rule="nonzero"/></g></svg>